<svg width="488" height="488" viewBox="0 0 488 488" fill="none" xmlns="http://www.w3.org/2000/svg">
<g filter="url(#filter0_d)">
<rect x="4" width="480" height="480" fill="#232F3A" fill-opacity="0.61"/>
<g clip-path="url(#clip0)">
<path d="M280.253 226.421C260.171 206.338 227.497 206.338 207.414 226.421L194 239.833L207.747 253.579C217.787 263.62 230.976 268.642 244.167 268.642C257.358 268.642 270.546 263.622 280.588 253.579L294.002 240.166L280.253 226.421ZM278.198 251.191C259.432 269.954 228.9 269.954 210.135 251.191L198.777 239.833L209.802 228.807C228.568 210.044 259.1 210.044 277.865 228.807L289.223 240.166L278.198 251.191Z" fill="white"/>
<path d="M242.264 226.436C235.743 226.436 230.439 231.74 230.439 238.26C230.439 239.193 231.196 239.949 232.128 239.949C233.061 239.949 233.818 239.193 233.818 238.26C233.818 233.603 237.606 229.814 242.264 229.814C243.196 229.814 243.953 229.057 243.953 228.125C243.953 227.193 243.198 226.436 242.264 226.436Z" fill="white"/>
<path d="M243.953 217.99C231.845 217.99 221.993 227.841 221.993 239.949C221.993 252.057 231.845 261.909 243.953 261.909C256.061 261.909 265.912 252.057 265.912 239.949C265.912 227.841 256.062 217.99 243.953 217.99ZM243.953 258.53C233.708 258.53 225.372 250.194 225.372 239.949C225.372 229.704 233.708 221.368 243.953 221.368C254.198 221.368 262.534 229.704 262.534 239.949C262.534 250.194 254.199 258.53 243.953 258.53Z" fill="white"/>
</g>
</g>
<defs>
<filter id="filter0_d" x="0" y="0" width="488" height="488" filterUnits="userSpaceOnUse" color-interpolation-filters="sRGB">
<feFlood flood-opacity="0" result="BackgroundImageFix"/>
<feColorMatrix in="SourceAlpha" type="matrix" values="0 0 0 0 0 0 0 0 0 0 0 0 0 0 0 0 0 0 127 0"/>
<feOffset dy="4"/>
<feGaussianBlur stdDeviation="2"/>
<feColorMatrix type="matrix" values="0 0 0 0 0 0 0 0 0 0 0 0 0 0 0 0 0 0 0.25 0"/>
<feBlend mode="normal" in2="BackgroundImageFix" result="effect1_dropShadow"/>
<feBlend mode="normal" in="SourceGraphic" in2="effect1_dropShadow" result="shape"/>
</filter>
<clipPath id="clip0">
<rect width="100" height="100" fill="white" transform="translate(194 190)"/>
</clipPath>
</defs>
</svg>
